<?xml version="1.0" standalone="no"?>
<!DOCTYPE svg PUBLIC "-//W3C//DTD SVG 20010904//EN"
 "http://www.w3.org/TR/2001/REC-SVG-20010904/DTD/svg10.dtd">
<svg version="1.0" xmlns="http://www.w3.org/2000/svg"
 width="100.000000pt" height="100.000000pt" viewBox="0 0 100.000000 100.000000"
 preserveAspectRatio="xMidYMid meet">

<g transform="translate(0.000000,100.000000) scale(0.100000,-0.100000)"
fill="#000000" stroke="none">
<path d="M110 890 c-19 -19 -20 -33 -20 -390 0 -357 1 -371 20 -390 19 -19 33
-20 390 -20 357 0 371 1 390 20 26 26 26 64 0 90 -19 19 -33 20 -205 20 -102
0 -185 2 -185 5 0 15 25 55 35 55 7 0 24 9 37 20 19 14 34 18 60 14 72 -12
138 44 138 117 0 17 7 37 15 43 26 19 44 85 33 122 -7 26 -4 39 12 66 34 55
20 126 -32 162 -31 22 -100 20 -130 -3 -18 -15 -35 -18 -64 -15 -70 9 -142
-60 -132 -127 6 -40 -31 -74 -77 -71 -35 4 -83 -16 -105 -43 -7 -9 -16 -32
-19 -52 -4 -25 -13 -38 -28 -44 l-23 -8 0 204 c0 192 -1 206 -20 225 -11 11
-31 20 -45 20 -14 0 -34 -9 -45 -20z m60 -380 l0 -340 340 -2 c218 -2 340 -7
340 -13 0 -6 -124 -10 -352 -10 l-353 0 -3 345 c-1 190 0 351 3 358 3 7 9 10
15 7 6 -4 10 -128 10 -345z m609 254 c27 -34 26 -50 -4 -79 -29 -30 -58 -32
-85 -5 -39 39 -11 110 44 110 15 0 33 -11 45 -26z m-145 -30 c20 -20 20 -68 0
-88 -8 -9 -28 -16 -44 -16 -36 0 -60 24 -60 60 0 36 24 60 60 60 16 0 36 -7
44 -16z m110 -125 c31 -25 34 -61 6 -89 -33 -33 -76 -26 -99 17 -16 31 -14 41
14 68 29 30 45 31 79 4z m-164 -19 c11 -11 20 -31 20 -45 0 -30 -32 -65 -60
-65 -24 0 -70 42 -70 63 0 8 9 26 21 41 25 31 61 34 89 6z m-155 -55 c30 -29
32 -58 5 -85 -39 -39 -110 -11 -110 44 0 25 41 66 67 66 8 0 25 -11 38 -25z
m275 -65 c24 -24 25 -48 4 -78 -31 -45 -114 -19 -114 36 0 56 69 83 110 42z
m-162 -26 c43 -30 19 -114 -32 -114 -59 0 -87 69 -46 110 24 24 48 25 78 4z
m-216 -41 c18 -16 24 -59 10 -79 -27 -42 -95 -35 -112 11 -10 27 1 62 24 77
19 13 59 9 78 -9z m123 -68 c14 -13 25 -30 25 -38 0 -26 -41 -67 -66 -67 -31
0 -64 33 -64 65 0 30 32 65 60 65 12 0 32 -11 45 -25z"/>
</g>
</svg>
